<?xml version="1.0" encoding="UTF-8"?>
<svg xmlns="http://www.w3.org/2000/svg" xmlns:xlink="http://www.w3.org/1999/xlink" width="854" height="480" viewBox="0 0 854 480">
<defs>
<g>
<g id="glyph-0-0">
<path d="M 0.765625 -6.296875 C 1.148438 -6.398438 1.519531 -6.472656 1.875 -6.515625 C 2.226562 -6.566406 2.578125 -6.59375 2.921875 -6.59375 C 3.703125 -6.59375 4.300781 -6.453125 4.71875 -6.171875 C 5.144531 -5.898438 5.359375 -5.503906 5.359375 -4.984375 C 5.359375 -4.585938 5.234375 -4.265625 4.984375 -4.015625 C 4.742188 -3.773438 4.394531 -3.613281 3.9375 -3.53125 C 4.5 -3.445312 4.921875 -3.253906 5.203125 -2.953125 C 5.484375 -2.660156 5.625 -2.257812 5.625 -1.75 C 5.625 -1.144531 5.382812 -0.679688 4.90625 -0.359375 C 4.425781 -0.0351562 3.726562 0.125 2.8125 0.125 C 2.476562 0.125 2.128906 0.09375 1.765625 0.03125 C 1.398438 -0.0195312 1.019531 -0.101562 0.625 -0.21875 L 0.625 -1.640625 L 1.140625 -1.640625 C 1.171875 -1.234375 1.300781 -0.921875 1.53125 -0.703125 C 1.757812 -0.484375 2.070312 -0.375 2.46875 -0.375 C 2.90625 -0.375 3.242188 -0.492188 3.484375 -0.734375 C 3.722656 -0.984375 3.84375 -1.332031 3.84375 -1.78125 C 3.84375 -2.25 3.71875 -2.609375 3.46875 -2.859375 C 3.21875 -3.117188 2.863281 -3.25 2.40625 -3.25 L 2.125 -3.25 L 2.125 -3.78125 L 2.34375 -3.78125 C 2.769531 -3.78125 3.085938 -3.875 3.296875 -4.0625 C 3.515625 -4.257812 3.625 -4.554688 3.625 -4.953125 C 3.625 -5.316406 3.523438 -5.597656 3.328125 -5.796875 C 3.128906 -5.992188 2.84375 -6.09375 2.46875 -6.09375 C 2.125 -6.09375 1.847656 -6 1.640625 -5.8125 C 1.441406 -5.625 1.328125 -5.351562 1.296875 -5 L 0.765625 -5 Z "/>
</g>
</g>
</defs>
<g fill="rgb(95.686275%, 82.745098%, 27.058824%)" fill-opacity="1">
<use xlink:href="#glyph-0-0" x="30" y="28.34668"/>
</g>
</svg>
