<?xml version="1.0" encoding="UTF-8"?>
<svg xmlns="http://www.w3.org/2000/svg" xmlns:xlink="http://www.w3.org/1999/xlink" width="854" height="480" viewBox="0 0 854 480">
<defs>
<g>
<g id="glyph-0-0">
<path d="M 3.53125 -0.96875 C 3.414062 -0.625 3.234375 -0.363281 2.984375 -0.1875 C 2.734375 -0.0078125 2.414062 0.078125 2.03125 0.078125 C 1.789062 0.078125 1.566406 0.0351562 1.359375 -0.046875 C 1.160156 -0.128906 0.984375 -0.25 0.828125 -0.40625 C 0.640625 -0.59375 0.5 -0.800781 0.40625 -1.03125 C 0.320312 -1.257812 0.28125 -1.519531 0.28125 -1.8125 C 0.28125 -2.382812 0.441406 -2.84375 0.765625 -3.1875 C 1.097656 -3.539062 1.53125 -3.71875 2.0625 -3.71875 C 2.257812 -3.71875 2.46875 -3.691406 2.6875 -3.640625 C 2.914062 -3.585938 3.160156 -3.503906 3.421875 -3.390625 L 3.421875 -2.5625 L 3.15625 -2.5625 C 3.09375 -2.863281 2.96875 -3.085938 2.78125 -3.234375 C 2.601562 -3.378906 2.351562 -3.453125 2.03125 -3.453125 C 1.632812 -3.453125 1.335938 -3.3125 1.140625 -3.03125 C 0.941406 -2.757812 0.84375 -2.351562 0.84375 -1.8125 C 0.84375 -1.28125 0.941406 -0.875 1.140625 -0.59375 C 1.335938 -0.320312 1.632812 -0.1875 2.03125 -0.1875 C 2.300781 -0.1875 2.519531 -0.25 2.6875 -0.375 C 2.863281 -0.507812 2.992188 -0.707031 3.078125 -0.96875 Z "/>
</g>
<g id="glyph-0-1">
<path d="M 2.515625 -3.640625 L 2.515625 -3.25 L 0.84375 -3.25 L 0.84375 -2.203125 C 0.925781 -2.253906 1.023438 -2.296875 1.140625 -2.328125 C 1.253906 -2.359375 1.378906 -2.375 1.515625 -2.375 C 1.910156 -2.375 2.222656 -2.265625 2.453125 -2.046875 C 2.679688 -1.828125 2.796875 -1.53125 2.796875 -1.15625 C 2.796875 -0.769531 2.679688 -0.46875 2.453125 -0.25 C 2.222656 -0.03125 1.898438 0.078125 1.484375 0.078125 C 1.316406 0.078125 1.144531 0.0546875 0.96875 0.015625 C 0.789062 -0.0234375 0.609375 -0.0859375 0.421875 -0.171875 L 0.421875 -0.890625 L 0.703125 -0.890625 C 0.710938 -0.648438 0.785156 -0.46875 0.921875 -0.34375 C 1.054688 -0.226562 1.242188 -0.171875 1.484375 -0.171875 C 1.734375 -0.171875 1.925781 -0.253906 2.0625 -0.421875 C 2.207031 -0.585938 2.28125 -0.832031 2.28125 -1.15625 C 2.28125 -1.46875 2.210938 -1.707031 2.078125 -1.875 C 1.941406 -2.050781 1.742188 -2.140625 1.484375 -2.140625 C 1.335938 -2.140625 1.207031 -2.113281 1.09375 -2.0625 C 0.976562 -2.007812 0.878906 -1.925781 0.796875 -1.8125 L 0.59375 -1.8125 L 0.59375 -3.640625 Z "/>
</g>
</g>
</defs>
<g fill="rgb(100%, 100%, 100%)" fill-opacity="1">
<use xlink:href="#glyph-0-0" x="30" y="24.641602"/>
<use xlink:href="#glyph-0-1" x="34" y="24.641602"/>
</g>
</svg>
