<?xml version="1.0" encoding="UTF-8"?>
<svg xmlns="http://www.w3.org/2000/svg" xmlns:xlink="http://www.w3.org/1999/xlink" width="854" height="480" viewBox="0 0 854 480">
<defs>
<g>
<g id="glyph-0-0">
<path d="M 2.796875 -4.0625 L 2.796875 -3.609375 L 0.9375 -3.609375 L 0.9375 -2.453125 C 1.03125 -2.515625 1.140625 -2.5625 1.265625 -2.59375 C 1.390625 -2.625 1.53125 -2.640625 1.6875 -2.640625 C 2.125 -2.640625 2.46875 -2.519531 2.71875 -2.28125 C 2.976562 -2.039062 3.109375 -1.707031 3.109375 -1.28125 C 3.109375 -0.851562 2.976562 -0.519531 2.71875 -0.28125 C 2.46875 -0.0390625 2.109375 0.078125 1.640625 0.078125 C 1.453125 0.078125 1.257812 0.0507812 1.0625 0 C 0.875 -0.0390625 0.675781 -0.109375 0.46875 -0.203125 L 0.46875 -0.984375 L 0.78125 -0.984375 C 0.789062 -0.722656 0.867188 -0.523438 1.015625 -0.390625 C 1.171875 -0.253906 1.378906 -0.1875 1.640625 -0.1875 C 1.929688 -0.1875 2.148438 -0.28125 2.296875 -0.46875 C 2.453125 -0.65625 2.53125 -0.925781 2.53125 -1.28125 C 2.53125 -1.632812 2.453125 -1.90625 2.296875 -2.09375 C 2.148438 -2.28125 1.929688 -2.375 1.640625 -2.375 C 1.484375 -2.375 1.34375 -2.34375 1.21875 -2.28125 C 1.09375 -2.226562 0.984375 -2.140625 0.890625 -2.015625 L 0.65625 -2.015625 L 0.65625 -4.0625 Z "/>
</g>
</g>
</defs>
<g fill="rgb(53.333333%, 53.333333%, 53.333333%)" fill-opacity="1">
<use xlink:href="#glyph-0-0" x="30" y="25.157227"/>
</g>
</svg>
