<?xml version="1.0" encoding="UTF-8"?>
<svg xmlns="http://www.w3.org/2000/svg" xmlns:xlink="http://www.w3.org/1999/xlink" width="854" height="480" viewBox="0 0 854 480">
<defs>
<g>
<g id="glyph-0-0">
<path d="M 0.5 -2.15625 L 0.28125 -2.15625 L 0.28125 -2.671875 C 0.414062 -2.742188 0.550781 -2.796875 0.6875 -2.828125 C 0.832031 -2.867188 0.96875 -2.890625 1.09375 -2.890625 C 1.394531 -2.890625 1.628906 -2.816406 1.796875 -2.671875 C 1.960938 -2.523438 2.046875 -2.332031 2.046875 -2.09375 C 2.046875 -1.8125 1.851562 -1.476562 1.46875 -1.09375 C 1.4375 -1.0625 1.414062 -1.039062 1.40625 -1.03125 L 0.6875 -0.3125 L 1.875 -0.3125 L 1.875 -0.65625 L 2.09375 -0.65625 L 2.09375 0 L 0.265625 0 L 0.265625 -0.203125 L 1.125 -1.0625 C 1.3125 -1.25 1.445312 -1.421875 1.53125 -1.578125 C 1.613281 -1.742188 1.65625 -1.914062 1.65625 -2.09375 C 1.65625 -2.28125 1.601562 -2.425781 1.5 -2.53125 C 1.40625 -2.644531 1.269531 -2.703125 1.09375 -2.703125 C 0.914062 -2.703125 0.773438 -2.65625 0.671875 -2.5625 C 0.578125 -2.476562 0.519531 -2.34375 0.5 -2.15625 Z "/>
</g>
</g>
</defs>
<g fill="rgb(53.333333%, 53.333333%, 53.333333%)" fill-opacity="1">
<use xlink:href="#glyph-0-0" x="30" y="23.610352"/>
</g>
</svg>
